<mxfile host="app.diagrams.net" modified="2022-06-30T08:11:33.639Z" agent="5.0 (X11; Linux x86_64) AppleWebKit/537.36 (KHTML, like Gecko) Chrome/95.0.4638.54 Safari/537.36" etag="uWn-gyaHgVyU9e5t5V7D" version="20.0.4" type="github">
  <diagram id="prtHgNgQTEPvFCAcTncT" name="Page-1">
    <mxGraphModel dx="1094" dy="682" grid="1" gridSize="10" guides="1" tooltips="1" connect="1" arrows="1" fold="1" page="1" pageScale="1" pageWidth="827" pageHeight="1169" math="0" shadow="0">
      <root>
        <mxCell id="0" />
        <mxCell id="1" parent="0" />
        <mxCell id="gTq1tsm0dun8Z4E1GYao-36" value="" style="edgeStyle=orthogonalEdgeStyle;rounded=0;orthogonalLoop=1;jettySize=auto;html=1;" edge="1" parent="1" source="gTq1tsm0dun8Z4E1GYao-22">
          <mxGeometry relative="1" as="geometry">
            <mxPoint x="240" y="175" as="targetPoint" />
          </mxGeometry>
        </mxCell>
        <mxCell id="gTq1tsm0dun8Z4E1GYao-22" value="nhóm quyền" style="swimlane;fontStyle=0;childLayout=stackLayout;horizontal=1;startSize=26;fillColor=none;horizontalStack=0;resizeParent=1;resizeParentMax=0;resizeLast=0;collapsible=1;marginBottom=0;" vertex="1" parent="1">
          <mxGeometry x="40" y="120" width="140" height="110" as="geometry" />
        </mxCell>
        <mxCell id="gTq1tsm0dun8Z4E1GYao-26" value="Cấp truy cập cửa" style="swimlane;fontStyle=0;childLayout=stackLayout;horizontal=1;startSize=26;fillColor=none;horizontalStack=0;resizeParent=1;resizeParentMax=0;resizeLast=0;collapsible=1;marginBottom=0;" vertex="1" parent="1">
          <mxGeometry x="240" y="120" width="140" height="136" as="geometry" />
        </mxCell>
        <mxCell id="gTq1tsm0dun8Z4E1GYao-27" value="Cấp phân tầng" style="swimlane;fontStyle=0;childLayout=stackLayout;horizontal=1;startSize=26;fillColor=none;horizontalStack=0;resizeParent=1;resizeParentMax=0;resizeLast=0;collapsible=1;marginBottom=0;" vertex="1" parent="1">
          <mxGeometry x="240" y="320" width="140" height="110" as="geometry" />
        </mxCell>
        <mxCell id="gTq1tsm0dun8Z4E1GYao-28" value="Nhóm người" style="swimlane;fontStyle=0;childLayout=stackLayout;horizontal=1;startSize=26;fillColor=none;horizontalStack=0;resizeParent=1;resizeParentMax=0;resizeLast=0;collapsible=1;marginBottom=0;" vertex="1" parent="1">
          <mxGeometry x="240" y="520" width="140" height="110" as="geometry" />
        </mxCell>
        <mxCell id="gTq1tsm0dun8Z4E1GYao-29" value="Danh sách người" style="swimlane;fontStyle=0;childLayout=stackLayout;horizontal=1;startSize=26;fillColor=none;horizontalStack=0;resizeParent=1;resizeParentMax=0;resizeLast=0;collapsible=1;marginBottom=0;" vertex="1" parent="1">
          <mxGeometry x="240" y="760" width="140" height="110" as="geometry" />
        </mxCell>
        <mxCell id="gTq1tsm0dun8Z4E1GYao-31" value="1 Cấp truy cập cửa" style="swimlane;fontStyle=0;childLayout=stackLayout;horizontal=1;startSize=26;fillColor=none;horizontalStack=0;resizeParent=1;resizeParentMax=0;resizeLast=0;collapsible=1;marginBottom=0;" vertex="1" parent="1">
          <mxGeometry x="440" y="120" width="140" height="78" as="geometry" />
        </mxCell>
        <mxCell id="gTq1tsm0dun8Z4E1GYao-32" value="Nhóm cửa&#xa;" style="text;strokeColor=none;fillColor=none;align=left;verticalAlign=top;spacingLeft=4;spacingRight=4;overflow=hidden;rotatable=0;points=[[0,0.5],[1,0.5]];portConstraint=eastwest;" vertex="1" parent="gTq1tsm0dun8Z4E1GYao-31">
          <mxGeometry y="26" width="140" height="26" as="geometry" />
        </mxCell>
        <mxCell id="gTq1tsm0dun8Z4E1GYao-33" value="Lịch&#xa;" style="text;strokeColor=none;fillColor=none;align=left;verticalAlign=top;spacingLeft=4;spacingRight=4;overflow=hidden;rotatable=0;points=[[0,0.5],[1,0.5]];portConstraint=eastwest;" vertex="1" parent="gTq1tsm0dun8Z4E1GYao-31">
          <mxGeometry y="52" width="140" height="26" as="geometry" />
        </mxCell>
        <mxCell id="gTq1tsm0dun8Z4E1GYao-37" value="" style="edgeStyle=segmentEdgeStyle;endArrow=classic;html=1;rounded=0;exitX=1;exitY=0.5;exitDx=0;exitDy=0;entryX=0;entryY=0.5;entryDx=0;entryDy=0;" edge="1" parent="1" source="gTq1tsm0dun8Z4E1GYao-22" target="gTq1tsm0dun8Z4E1GYao-27">
          <mxGeometry width="50" height="50" relative="1" as="geometry">
            <mxPoint x="480" y="390" as="sourcePoint" />
            <mxPoint x="530" y="340" as="targetPoint" />
            <Array as="points">
              <mxPoint x="210" y="175" />
              <mxPoint x="210" y="375" />
            </Array>
          </mxGeometry>
        </mxCell>
        <mxCell id="gTq1tsm0dun8Z4E1GYao-38" value="" style="edgeStyle=segmentEdgeStyle;endArrow=classic;html=1;rounded=0;" edge="1" parent="1">
          <mxGeometry width="50" height="50" relative="1" as="geometry">
            <mxPoint x="210" y="185" as="sourcePoint" />
            <mxPoint x="240" y="580" as="targetPoint" />
            <Array as="points">
              <mxPoint x="210" y="185" />
              <mxPoint x="210" y="580" />
              <mxPoint x="240" y="580" />
            </Array>
          </mxGeometry>
        </mxCell>
      </root>
    </mxGraphModel>
  </diagram>
</mxfile>
